<?xml version="1.0" encoding="UTF-8"?>
<!DOCTYPE svg PUBLIC "-//W3C//DTD SVG 1.1//EN" "http://www.w3.org/Graphics/SVG/1.1/DTD/svg11.dtd">
<!-- Creator: CorelDRAW -->
<svg xmlns="http://www.w3.org/2000/svg" xml:space="preserve" width="6.6584mm" height="6.1147mm" version="1.1" style="shape-rendering:geometricPrecision; text-rendering:geometricPrecision; image-rendering:optimizeQuality; fill-rule:evenodd; clip-rule:evenodd"
viewBox="0 0 12.87 11.82"
 xmlns:xlink="http://www.w3.org/1999/xlink"
 xmlns:xodm="http://www.corel.com/coreldraw/odm/2003">
 <defs>
  <style type="text/css">
   <![CDATA[
    .fil0 {fill:#EEEEEE;fill-rule:nonzero}
   ]]>
  </style>
 </defs>
 <g id="Слой_x0020_1">
  <metadata id="CorelCorpID_0Corel-Layer"/>
  <path class="fil0" d="M0.39 3.33l1.29 1.83c-0.17,0.08 -0.34,0.17 -0.49,0.28 -0.98,0.69 -1.18,1.95 -0.33,3.16 0.68,0.96 1.85,0.51 2.75,0.47 0.37,-0.02 0.73,0.02 1.07,0.07l0.01 0 0 0c0.59,0.07 0.83,0.15 0.94,0.3l0.04 0.06c-0.02,0.19 0.04,0.4 0.17,0.59l0.96 1.36c0.26,0.38 0.74,0.49 1.07,0.26l4.73 -3.33c0.33,-0.23 0.38,-0.72 0.11,-1.1l-0.96 -1.36c-0.13,-0.18 -0.31,-0.3 -0.49,-0.35l-0.04 -0.06c-0.43,-0.61 -0.18,-2 -1.08,-3.28l-0.32 -0.45c-0.93,-1.33 -2.27,-1.54 -3.36,-0.8 -0.55,-0.01 -1.11,0.2 -1.53,0.57 -0.2,0.03 -0.39,0.08 -0.57,0.15l-0.53 -0.76c-0.68,-0.96 -2.01,-1.22 -2.95,-0.56 -0.93,0.65 -1.14,2.01 -0.46,2.97zm2.43 -1.71l1.36 1.93c0.11,-0.48 0.66,-0.92 1.33,-0.78 0.24,-0.52 0.91,-0.7 1.29,-0.5 0.71,-0.7 1.41,-0.67 2.01,0.19l0.32 0.45c0.68,0.97 0.42,2.16 0.98,3.12l-3.63 2.55c-0.44,-0.49 -1.08,-0.61 -1.7,-0.68 -0.43,-0.06 -0.84,-0.1 -1.28,-0.08 -0.7,0.03 -1.54,0.26 -1.67,0.07 -0.35,-0.5 -0.48,-1.06 0.07,-1.44 0.72,-0.51 1.48,-0.21 1.84,-0.46l-2.37 -3.36c-0.28,-0.39 -0.19,-0.99 0.2,-1.26 0.39,-0.27 0.97,-0.16 1.25,0.24zm7.72 5.39c0.27,-0.19 0.65,-0.12 0.85,0.16 0.2,0.28 0.14,0.66 -0.13,0.86 -0.27,0.19 -0.65,0.12 -0.85,-0.16 -0.2,-0.28 -0.14,-0.66 0.13,-0.86z"/>
 </g>
</svg>
